<svg xmlns="http://www.w3.org/2000/svg" width="1200" height="800" viewBox="0 0 1200 800" role="img" aria-labelledby="title desc"><title>澳门原创城市概念图</title><desc>项目原创矢量几何意象；非实景照片、地理边界或拍照点指引。</desc><defs><linearGradient id="sky" x2="0" y2="1"><stop stop-color="#f0e6d6"/><stop offset="1" stop-color="#f6f0df"/></linearGradient><linearGradient id="water" x2="0" y2="1"><stop stop-color="#abc9b8"/><stop offset="1" stop-color="#d7e1cd"/></linearGradient><pattern id="paper" width="29" height="29" patternUnits="userSpaceOnUse"><circle cx="5" cy="8" r=".75" fill="#435e45" opacity=".06"/><circle cx="20" cy="21" r=".65" fill="#435e45" opacity=".04"/></pattern></defs><rect width="1200" height="800" fill="url(#sky)"/><circle cx="952" cy="175" r="86" fill="#dfc89f" opacity=".57"/><path d="M-40 221Q170 192 347 221T730 213T1240 214" stroke="#fffdf5" stroke-width="2" fill="none" opacity=".7"/><path d="M0 501Q163 359 348 485T752 418T1200 479V800H0Z" fill="#cbd3b8"/><g fill="#baa98b"><path d="M58 452H161V618H58Z M176 487H282V618H176Z M925 426H1031V618H925Z M1047 480H1147V618H1047Z"/></g><path d="M365 609H841L893 654H311Z M311 654H893L935 688H269Z" fill="#b2aa8a"/><path d="M411 318H782V611H411Z M452 251H741V318H452Z M488 197H705V251H488Z M521 174L596 124L671 174V197H521Z" fill="#d9c29b"/><g fill="#9f8f6f"><path d="M431 353H763V365H431Z M431 448H763V460H431Z M474 272H719V282H474Z"/><path d="M551 526Q596 481 641 526V611H551Z M488 383Q508 360 528 383V427H488Z M668 383Q688 360 708 383V427H668Z"/><circle cx="595" cy="225" r="19"/></g><g stroke="#efe0ba" stroke-width="14"><path d="M449 369V446M561 369V446M636 369V446M746 369V446M451 476V593M514 476V593M678 476V593M741 476V593"/></g><path d="M383 610H809M372 625H822M356 641H839M340 658H856M318 676H878" stroke="#efe0bd" stroke-width="5"/><path d="M0 710Q322 687 596 726T1200 709V800H0Z" fill="url(#water)"/><path d="M0 750Q322 727 596 766T1200 749" stroke="#f5efd9" stroke-width="3" fill="none"/><rect width="1200" height="800" fill="url(#paper)"/><g fill="#34594e" font-family="Microsoft YaHei, sans-serif"><text x="66" y="87" font-size="31" letter-spacing="4">澳门</text><text x="68" y="118" font-size="13" letter-spacing="4">MACAU</text></g><g transform="translate(67 745)"><path d="M0 0H38" stroke="#557565" stroke-width="2"/><text x="51" y="5" fill="#577363" font-size="15" font-family="Microsoft YaHei, sans-serif" letter-spacing="1">原创概念图 · 非实景</text></g><text x="1118" y="750" text-anchor="end" fill="#698474" font-family="sans-serif" font-size="13" letter-spacing="4">VESLUMA</text></svg>
